PathFileType	4	(X/Y/Z)	Patient4_TMGait_0pt6_01_right_07.trc.trc
DataRate	CameraRate	NumFrames	NumMarkers	Units	OrigDataRate	OrigDataStartFrame	OrigNumFrames
83.832335329341	83.832335329341	4	33	mm	83.832335329341	53	       141
Frame#	Time	Sacral			L.Shoulder			Chest			R.Shoulder			Neck			R.ASIS			L.ASIS			R.Thigh.Superior			R.Thigh.Lateral			R.Thigh.Inferior			R.Patella			L.Thigh.Superior			L.Thigh.Lateral			L.Thigh.Inferior			L.Patella			L.Shank.Superior			L.Shank.Lateral			L.Shank.Inferior			R.Shank.Superior			R.Shank.Lateral			R.Shank.Inferior			R.Heel			R.Midfoot.Superior			R.Midfoot.Lateral			R.Toe			L.Heel			L.Midfoot.Lateral			L.Midfoot.Superior			L.Toe			L.Elbow			L.Wrist			R.Elbow			R.Wrist			
		X1	Y1	Z1	X2	Y2	Z2	X3	Y3	Z3	X4	Y4	Z4	X5	Y5	Z5	X6	Y6	Z6	X7	Y7	Z7	X8	Y8	Z8	X9	Y9	Z9	X10	Y10	Z10	X11	Y11	Z11	X12	Y12	Z12	X13	Y13	Z13	X14	Y14	Z14	X15	Y15	Z15	X16	Y16	Z16	X17	Y17	Z17	X18	Y18	Z18	X19	Y19	Z19	X20	Y20	Z20	X21	Y21	Z21	X22	Y22	Z22	X23	Y23	Z23	X24	Y24	Z24	X25	Y25	Z25	X26	Y26	Z26	X27	Y27	Z27	X28	Y28	Z28	X29	Y29	Z29	X30	Y30	Z30	X31	Y31	Z31	X32	Y32	Z32	X33	Y33	Z33	

53	8.550285714286	635.613758423507	1006.379136036180	515.134926692816	768.528889153165	1442.203097201194	325.988928498283	896.265287907737	1375.539672875338	469.453375004920	834.698038092776	1440.332140941537	654.919763020574	774.993254112534	1498.443411558261	481.276096142483	874.669002587644	945.935197744440	610.234433101661	835.316994263590	969.462332525901	338.509148546481	896.329886312011	738.494976957756	578.613511135479	807.350583952588	633.947008300333	640.512195503479	875.230677261835	578.329954330643	558.040910737333	867.482006481210	492.662019912314	561.901028482261	927.808919078554	791.364970870300	368.151907066019	886.563440668387	660.674080836631	293.990718235967	994.183015069505	603.577263122344	350.670715540477	1013.826266974856	518.386818148118	342.762995283998	963.168525057893	444.001909302714	338.771767037030	835.509944040469	364.981558426441	300.125533395440	864.502730345743	237.397805879177	353.823113573696	839.620612996692	403.673407573243	566.516608478029	767.856318921208	298.269085160832	623.228456200192	811.879718089887	205.838710876601	558.216642714703	678.695727724283	41.678264663663	516.541090804796	848.186940291615	96.583808226401	560.606126181388	758.614427438421	35.957288152559	595.611876203303	966.732514075128	45.457546440051	594.777606622613	705.027189732061	119.278850005891	406.886144872194	764.781212590516	94.052245004273	319.701472200027	863.983651296888	133.544343331777	331.747834840193	968.317552102510	51.542141735755	292.032944573616	692.045801458632	1091.885796155009	224.251851050610	721.582736903995	834.254369029574	215.034457548018	895.116633266432	1093.659709328790	771.747357397259	1085.532238268265	917.656616685844	746.368898755978	
54	8.562214285714	635.117517600694	1006.786869936791	516.193483088032	767.532777584335	1442.403451929205	326.838242654517	896.252712409150	1375.419769736411	469.250467885931	836.190034901903	1440.225862842801	655.210392328358	775.185883919919	1498.439763038940	481.986136555789	874.385635025341	945.475042093772	609.986580312602	833.781581752587	969.688019801568	338.367534534326	893.325012082906	737.595381819425	578.151585801613	803.266475105214	633.941577460145	640.729655097393	869.847702829730	577.622563624439	558.025450138218	861.201130725412	492.330761436358	561.972390933641	926.629841659380	792.463144130514	368.353290016281	886.196241844453	661.469252241890	294.017101584272	993.554426662802	604.947643207559	351.365248181336	1014.760440857331	521.623993851442	343.362102466326	968.138875373683	446.336378796091	338.799818004884	846.142870997733	359.591963662895	299.334548457649	883.225197060803	233.682268704431	352.626164690971	833.021863741984	403.542157303645	566.619986834487	761.153389654205	298.272660348960	623.430881577772	804.935036903997	205.787224635013	558.279000222194	671.499424884809	41.650166868357	516.563194234867	840.963075780840	96.534381415000	560.581163005223	751.390116980707	35.904193340765	595.533890816015	959.495149908208	45.439011229266	594.781037898531	731.751247641672	105.341846723912	404.843819712142	793.170680930750	84.365495022520	317.726451857177	889.708088685065	129.878432819997	330.193583690843	999.047557864927	54.676923341117	290.487959748286	685.293751144514	1093.358587591398	226.188522231695	708.861348882859	835.076227896612	218.840025744483	904.920279409807	1095.289639175663	771.530929695226	1103.619528676715	929.303149590260	743.454571364528	
55	8.574142857143	634.805161890068	1007.084332454137	517.193896096115	766.698670840896	1442.513387102429	327.552489502980	896.332654769078	1375.182449213330	468.951022825082	837.711261712750	1440.007902855179	655.366667071833	775.458560720637	1498.341360305479	482.558352569015	874.174166104300	944.938058010610	609.675370329581	832.331985040550	969.738285906553	338.140096221819	890.407316235840	736.631351570947	577.738711002546	799.258832962787	633.882751061322	640.929260813895	864.571343498340	576.873659601737	558.014723363557	855.040802058831	491.952579153374	562.046226517649	925.128031675022	792.986683646686	368.478267129770	885.202565618713	661.792781402296	293.956848921769	992.075071272084	605.607046297492	352.180886069533	1014.782020901095	524.378223875171	344.122572718104	972.325451572485	448.502513953641	338.972738945324	856.784606028070	354.259193645525	298.356056962534	901.799210453538	230.641110044094	351.527950837775	826.518968867962	403.420056590321	566.740910050822	754.502228650198	298.279429499592	623.644011225909	798.001063566630	205.725344897349	558.339346741692	664.312134319995	41.615522771569	516.608227215732	833.740429252462	96.479747727549	560.552371123952	744.162627438849	35.842547921422	595.446820860898	952.253421505870	45.417553476193	594.780200135907	758.957533868444	92.575408680143	402.556645694186	822.109990761319	75.838354699652	315.784007084000	915.549872425605	127.202065591497	328.900211918120	1029.581016981730	59.022109046874	289.763003227742	678.940443627549	1094.783852747688	228.116088916084	696.689693000583	836.009473444932	222.605420569424	914.344677548552	1097.007867175513	771.158236919297	1120.753664792652	941.425800764432	740.376542452680	
56	8.586071428571	634.681543894253	1007.269422734503	518.134910819922	766.040882344848	1442.535063842354	328.121673826693	896.507494107822	1374.828832813738	468.557754908983	839.251801311063	1439.685970242191	655.385423668848	775.818287132786	1498.150561201763	482.992862130164	874.031779255856	944.343600156532	609.300712211324	830.985145584834	969.619423448580	337.835286122087	887.601604249028	735.613817769797	577.384670796125	795.354312015776	633.774478925005	641.107221431352	859.435952171601	576.089077403016	558.006105070855	849.037388919358	491.526309739659	562.114306082765	923.329792481002	792.952622878548	368.523383257406	883.631822209623	661.668591964090	293.779839422594	989.836883998786	605.598373206075	353.054372566241	1013.972516053546	526.657124833087	345.010666067915	975.755472403246	450.519010847078	339.273817512763	867.371627565582	349.145112953963	297.200010269726	920.010834964490	228.413089916843	350.569127591857	820.145407666278	403.302005101220	566.870861925055	747.926324559617	298.294492918574	623.869172365529	791.092266270391	205.654212902752	558.397183740099	657.127009118771	41.578711153336	516.673471473425	826.520378213369	96.421239589560	560.524917159693	736.932621103323	35.777995921472	595.361739897106	945.010273873605	45.389889234847	594.776445818712	786.264720324046	81.294534480139	400.092667898534	851.246463586080	68.682699589132	313.973212325833	941.208436583696	125.634356234071	327.942972497404	1059.565545203855	64.577841901000	290.013924272977	672.981299584844	1096.151979090992	230.030213800737	685.095590106479	837.034505459195	226.290061976091	923.378441612638	1098.781614912974	770.617548650441	1136.878823945312	953.916443939378	737.166386076208	
